<?xml version="1.0" encoding="UTF-8" standalone="no"?>
<svg
   xmlns:dc="http://purl.org/dc/elements/1.1/"
   xmlns:cc="http://creativecommons.org/ns#"
   xmlns:rdf="http://www.w3.org/1999/02/22-rdf-syntax-ns#"
   xmlns:svg="http://www.w3.org/2000/svg"
   xmlns="http://www.w3.org/2000/svg"
   xmlns:sodipodi="http://sodipodi.sourceforge.net/DTD/sodipodi-0.dtd"
   xmlns:inkscape="http://www.inkscape.org/namespaces/inkscape"
   width="100"
   height="100"
   viewBox="0 0 100 100"
   version="1.1"
   id="svg3725"
   sodipodi:docname="icon.svg"
   inkscape:export-xdpi="15.36"
   inkscape:export-ydpi="15.36"
   inkscape:version="0.92.3 (2405546, 2018-03-11)">
  <metadata
     id="metadata3731">
    <rdf:RDF>
      <cc:Work
         rdf:about="">
        <dc:format>image/svg+xml</dc:format>
        <dc:type
           rdf:resource="http://purl.org/dc/dcmitype/StillImage" />
        <dc:title />
      </cc:Work>
    </rdf:RDF>
  </metadata>
  <defs
     id="defs3729" />
  <sodipodi:namedview
     pagecolor="#ffffff"
     bordercolor="#666666"
     borderopacity="1"
     objecttolerance="10"
     gridtolerance="10"
     guidetolerance="10"
     inkscape:pageopacity="0"
     inkscape:pageshadow="2"
     inkscape:window-width="1920"
     inkscape:window-height="1018"
     id="namedview3727"
     showgrid="false"
     inkscape:zoom="4.245"
     inkscape:cx="24.334127"
     inkscape:cy="53.215294"
     inkscape:window-x="-8"
     inkscape:window-y="-8"
     inkscape:window-maximized="1"
     inkscape:current-layer="g4542" />
  <g
     id="g4542"
     transform="matrix(0.92736218,0,0,0.92736218,3.5988833,3.6081443)">
    <path
       sodipodi:nodetypes="csccsccscsscccccssscssc"
       inkscape:connector-curvature="0"
       style="fill:#ffffff;fill-opacity:1;fill-rule:evenodd;stroke:#34353b;stroke-width:6.65295029;stroke-miterlimit:4;stroke-dasharray:none;stroke-opacity:1"
       d="m 16.633179,51.146308 c 3.64987,0.96291 4.964143,6.353343 5.848553,6.951214 1.803534,1.219209 16.129984,0.579826 16.129984,0.579826 1.197865,-11.724731 1.212833,-8.671318 2.95548,-16.59613 -1.989075,-1.34607 -5.333693,-2.23712 -5.797288,-4.88791 -0.463595,-2.65078 0.255088,-2.142681 0.187543,-6.314371 -1.439647,-2.768736 -2.204016,-6.03551 -2.500789,-9.43479 -3.024907,-1.751033 -6.026517,-0.494694 -6.433955,-5.297229 -0.353512,-4.166916 6.132756,-5.138818 9.747309,-7.5194007 7.077373,-8.28015298 12.684056,-7.86614927 18.26733,-7.86614927 5.583275,0 12.190976,3.76366917 17.585988,11.22034497 6.53222,9.028459 10.674317,18.629087 14.466281,30.044847 3.791954,11.41577 4.453617,21.459054 1.537854,31.769198 2.36821,0.77671 4.928378,1.009485 5.226735,3.950385 0.298366,2.94089 -1.267399,5.363996 -3.607729,5.963956 -2.34033,0.59995 -4.60182,-0.139224 -6.646539,-0.619694 -3.86217,3.77416 -9.011474,7.538043 -17.479555,9.177123 -8.468078,1.63908 -26.453377,6.593222 -32.623916,6.30881 C 27.325926,98.291926 26.634713,94.42266 25.658825,90.03441 24.682937,85.64616 25.403148,82.440968 25.465957,78.696308 19.909553,79.123928 11.055576,79.654646 9.0799525,78.775913 5.9995252,77.405776 4.2346784,69.110754 5.7658643,59.974024 6.9338652,53.004454 12.660658,50.22377 16.633179,51.146308 Z"
       id="path3733" />
    <path
       id="path3723"
       d="m 16.633179,51.146308 c 3.64987,0.96291 4.964143,6.353343 5.848553,6.951214 1.803534,1.219209 16.129984,0.579826 16.129984,0.579826 1.197865,-11.724731 1.212833,-8.671318 2.95548,-16.59613 -1.989075,-1.34607 -5.333693,-2.23712 -5.797288,-4.88791 -0.463595,-2.65078 0.255088,-2.142681 0.187543,-6.314371 -1.439647,-2.768736 -2.204016,-6.03551 -2.500789,-9.43479 -3.024907,-1.751033 -6.026517,-0.494694 -6.433955,-5.297229 -0.353512,-4.166916 6.132756,-5.138818 9.747309,-7.5194007 7.077373,-8.28015298 12.684056,-7.86614927 18.26733,-7.86614927 5.583275,0 12.190976,3.76366917 17.585988,11.22034497 6.53222,9.028459 10.674317,18.629087 14.466281,30.044847 3.791954,11.41577 4.453617,21.459054 1.537854,31.769198 2.36821,0.77671 4.928378,1.009485 5.226735,3.950385 0.298366,2.94089 -1.267399,5.363996 -3.607729,5.963956 -2.34033,0.59995 -4.60182,-0.139224 -6.646539,-0.619694 -3.86217,3.77416 -9.011474,7.538043 -17.479555,9.177123 -8.468078,1.63908 -26.453377,6.593222 -32.623916,6.30881 C 27.325926,98.291926 26.634713,94.42266 25.658825,90.03441 24.682937,85.64616 25.403148,82.440968 25.465957,78.696308 19.909553,79.123928 11.055576,79.654646 9.0799525,78.775913 5.9995252,77.405776 4.2346784,69.110754 5.7658643,59.974024 6.9338652,53.004454 12.660658,50.22377 16.633179,51.146308 Z M 47.316173,40.278702 c -1.977441,10.244331 -5.318272,21.474541 -5.662805,29.784036 -0.242507,5.848836 2.420726,7.5586 5.348383,2.078223 5.586237,-10.45706 7.896687,-21.139251 10.839979,-32.018641 -1.376342,0.732535 -2.33581,0.805482 -3.567752,1.104816 2.20065,-1.826801 1.797963,-1.259845 4.683397,-4.356147 3.702042,-3.972588 11.505701,-7.842675 15.187296,-4.490869 4.597776,4.185917 3.4537,13.920509 -0.431829,18.735387 -1.301987,5.219157 -3.278232,10.993981 -4.691055,14.211545 1.650129,0.951997 7.1775,2.647886 8.723023,6.808838 1.818473,4.895806 0.447993,8.335081 -3.207776,12.929618 8.781279,-6.214409 9.875004,-12.24852 10.586682,-20.251062 C 85.596887,59.244915 85.615915,54.42819 83.82437,47.181873 82.032825,39.935556 77.484187,30.527275 73.806105,23.780748 70.128023,17.034221 68.465076,12.376515 60.467734,7.5782428 54.534892,4.0186364 44.006601,5.3633006 39.960199,11.716546 c -4.046402,6.353245 -2.052295,11.417199 0.339979,17.673546 -0.06795,1.969646 -1.145015,4.295256 0.105508,5.751383 1.875243,-0.914979 2.772108,-1.957655 4.421995,-2.639606 -0.01451,1.529931 0.320921,4.192236 -1.17535,5.722167 1.758316,1.116252 1.80495,1.414307 3.663842,2.054666 z"
       style="fill:#e65eef;fill-opacity:1;fill-rule:evenodd;stroke:none"
       inkscape:connector-curvature="0" />
  </g>
</svg>
